<?xml version="1.0" standalone="no"?>
<!DOCTYPE svg PUBLIC "-//W3C//DTD SVG 20010904//EN"
 "http://www.w3.org/TR/2001/REC-SVG-20010904/DTD/svg10.dtd">
<svg version="1.0" xmlns="http://www.w3.org/2000/svg"
 width="2048.000000pt" height="1152.000000pt" viewBox="0 0 2048.000000 1152.000000"
 preserveAspectRatio="xMidYMid meet">

<g transform="translate(0.000000,1152.000000) scale(0.100000,-0.100000)"
fill="#000000" stroke="none">
<path d="M9955 11329 c-511 -43 -961 -168 -1405 -391 -401 -201 -660 -388
-981 -708 -410 -408 -695 -850 -888 -1378 -329 -899 -304 -1905 71 -2787 392
-923 1148 -1662 2083 -2035 185 -74 219 -83 290 -78 77 5 126 35 155 94 19 38
20 62 20 418 l0 378 -22 -5 c-71 -18 -278 -37 -401 -37 -165 0 -298 19 -415
59 -116 40 -185 84 -278 176 -67 66 -88 95 -124 170 -97 206 -124 257 -179
341 -87 135 -161 216 -254 278 -126 85 -167 128 -167 177 0 48 44 64 175 64
96 -1 118 -4 173 -27 161 -67 279 -172 411 -367 123 -181 213 -266 356 -332
184 -86 396 -90 629 -11 l109 37 23 101 c33 149 98 280 183 372 17 18 31 35
31 36 0 2 -42 9 -92 16 -880 117 -1374 505 -1552 1219 -35 136 -54 271 -66
461 -31 456 73 817 324 1128 l57 70 -21 64 c-40 123 -53 229 -47 413 3 103 12
200 22 245 26 117 75 264 93 278 36 28 224 4 384 -49 124 -41 385 -169 532
-261 l119 -75 113 28 c284 69 497 93 834 93 342 0 594 -29 877 -103 l72 -19
63 43 c322 215 674 355 892 355 35 0 69 -6 78 -12 19 -15 67 -164 94 -288 15
-68 19 -126 18 -285 0 -211 2 -192 -59 -410 -4 -14 12 -41 56 -95 157 -195
264 -435 305 -690 20 -122 20 -430 -1 -602 -67 -567 -300 -972 -700 -1218
-226 -139 -564 -247 -912 -291 l-92 -12 49 -55 c64 -72 134 -212 167 -337 l27
-100 6 -660 c5 -658 5 -660 27 -695 50 -81 156 -102 289 -56 283 96 646 284
904 466 835 591 1392 1469 1565 2465 96 555 62 1161 -95 1698 -142 486 -363
913 -681 1313 -118 149 -431 465 -569 575 -591 471 -1271 752 -2005 829 -141
15 -539 20 -670 9z"/>
<path d="M5148 3525 c-662 -91 -1037 -546 -1117 -1359 -14 -140 -14 -558 0
-684 74 -681 383 -1101 920 -1246 185 -50 275 -60 549 -61 226 0 269 3 375 23
191 36 425 122 553 201 l32 21 0 823 c0 785 -1 825 -18 840 -17 15 -70 17
-551 17 -348 0 -539 -4 -552 -10 -18 -10 -19 -24 -19 -293 0 -207 3 -286 12
-295 9 -9 73 -12 225 -12 l213 0 -2 -322 -3 -322 -45 -10 c-25 -5 -137 -9
-250 -10 -198 -1 -208 0 -286 27 -98 33 -205 105 -264 179 -154 191 -232 574
-201 986 38 493 204 750 547 844 70 19 105 21 304 22 245 1 305 -6 488 -57
116 -31 135 -31 153 4 14 26 120 501 117 522 -9 62 -305 150 -593 177 -150 14
-469 11 -587 -5z"/>
<path d="M9527 3402 c-16 -17 -17 -141 -17 -1573 0 -1391 2 -1557 16 -1577 15
-22 16 -22 328 -22 290 0 314 1 329 18 16 17 17 79 17 685 l0 667 460 0 460 0
0 -675 c0 -656 1 -675 19 -685 27 -14 615 -14 642 0 19 11 19 39 19 1583 0
1210 -3 1576 -12 1585 -17 17 -639 17 -656 0 -9 -9 -12 -155 -12 -595 l0 -583
-460 0 -460 0 0 579 c0 514 -2 581 -16 595 -13 14 -57 16 -328 16 -290 0 -314
-1 -329 -18z"/>
<path d="M14406 3398 c-14 -20 -16 -186 -16 -1573 0 -1387 2 -1553 16 -1573
15 -22 19 -22 239 -22 182 0 226 3 238 15 8 8 20 42 26 76 6 34 12 64 15 66 2
2 26 -11 53 -30 150 -108 357 -172 583 -184 555 -27 826 247 889 901 16 156
13 481 -4 609 -47 358 -186 593 -417 706 -135 66 -186 76 -393 75 -162 0 -190
-3 -277 -26 -53 -15 -136 -45 -184 -67 -48 -23 -88 -41 -90 -41 -2 0 -4 240
-4 533 0 401 -3 536 -12 545 -9 9 -96 12 -329 12 -317 0 -318 0 -333 -22z
m1172 -1518 c98 -43 157 -135 188 -298 16 -85 19 -395 4 -512 -22 -169 -81
-278 -172 -314 -120 -49 -381 -17 -505 62 l-23 14 0 489 0 489 48 23 c155 78
345 98 460 47z"/>
<path d="M7029 3332 c-331 -110 -356 -566 -39 -716 58 -27 75 -31 155 -31 82
0 97 3 156 32 80 39 150 111 187 191 24 50 27 69 27 162 0 97 -2 110 -30 164
-65 129 -184 207 -324 213 -54 2 -92 -2 -132 -15z"/>
<path d="M8073 3023 c-10 -4 -13 -77 -13 -318 0 -290 -1 -314 -17 -319 -10 -3
-85 -21 -167 -41 -82 -19 -155 -40 -163 -46 -10 -9 -13 -59 -13 -225 0 -209 0
-213 22 -228 18 -13 54 -16 180 -16 l158 0 0 -514 c0 -569 5 -626 62 -764 82
-198 242 -314 498 -363 108 -20 339 -15 454 10 54 11 110 27 125 34 l26 12 3
234 c2 175 -1 237 -10 249 -10 12 -30 14 -115 8 -185 -12 -297 26 -345 116
-23 43 -23 45 -26 511 l-3 467 223 0 c186 0 227 3 246 16 22 15 22 18 22 279
0 251 -1 265 -19 275 -12 6 -109 10 -245 10 l-226 0 0 304 c0 268 -2 305 -16
310 -19 7 -623 7 -641 -1z"/>
<path d="M6816 2394 c-9 -8 -18 -25 -21 -37 -3 -12 -4 -486 -3 -1054 3 -975 4
-1033 21 -1050 16 -16 46 -18 322 -21 295 -3 305 -2 325 18 20 20 20 26 20
1074 0 945 -2 1056 -16 1070 -13 14 -57 16 -324 16 -267 0 -311 -2 -324 -16z"/>
<path d="M12100 2381 c-14 -27 -14 -1453 0 -1591 35 -338 194 -525 509 -596
107 -24 368 -29 481 -10 128 23 280 75 406 139 57 30 104 53 104 53 2 -36 22
-122 31 -132 18 -22 421 -20 443 2 14 14 16 125 16 1073 0 809 -3 1060 -12
1069 -18 18 -641 17 -657 -1 -8 -10 -12 -235 -13 -783 l-3 -769 -73 -36 c-128
-64 -292 -86 -399 -54 -59 18 -114 72 -134 132 -10 29 -14 211 -17 767 -2 503
-6 734 -14 743 -8 10 -81 13 -334 13 -309 0 -324 -1 -334 -19z"/>
</g>
</svg>
